<svg width="648" height="354" viewBox="0 0 648 354" fill="none" xmlns="http://www.w3.org/2000/svg">
<g clip-path="url(#clip0_2222_412)">
<rect width="648" height="354" fill="#F9F9F9"/>
<g filter="url(#filter0_f_2222_412)">
<ellipse cx="323.5" cy="18.5" rx="222.5" ry="121.5" fill="#837FDF"/>
</g>
<rect x="135.25" y="-0.75" width="76.5" height="75.5" stroke="white" stroke-opacity="0.2" stroke-width="0.5"/>
<rect x="212.25" y="-0.75" width="75.5" height="75.5" stroke="white" stroke-opacity="0.2" stroke-width="0.5"/>
<rect x="288.25" y="-0.75" width="75.5" height="75.5" stroke="white" stroke-opacity="0.2" stroke-width="0.5"/>
<rect x="364.25" y="-0.75" width="75.5" height="75.5" stroke="white" stroke-opacity="0.2" stroke-width="0.5"/>
<rect x="440.25" y="-0.75" width="76.5" height="75.5" stroke="white" stroke-opacity="0.2" stroke-width="0.5"/>
<rect x="135.25" y="75.25" width="76.5" height="75.5" stroke="white" stroke-opacity="0.3" stroke-width="0.5"/>
<rect x="212.25" y="75.25" width="75.5" height="75.5" stroke="white" stroke-opacity="0.3" stroke-width="0.5"/>
<rect x="288.25" y="75.25" width="75.5" height="75.5" stroke="white" stroke-opacity="0.3" stroke-width="0.5"/>
<rect x="364.25" y="75.25" width="75.5" height="75.5" stroke="white" stroke-opacity="0.3" stroke-width="0.5"/>
<rect x="440.25" y="75.25" width="76.5" height="75.5" stroke="white" stroke-opacity="0.3" stroke-width="0.5"/>
<mask id="path-12-inside-1_2222_412" fill="white">
<path d="M135 151H212V227H135V151Z"/>
</mask>
<path d="M135 151V150.5H134.5V151H135ZM212 151H212.5V150.5H212V151ZM135 151.5H212V150.5H135V151.5ZM211.5 151V227H212.5V151H211.5ZM135.5 227V151H134.5V227H135.5Z" fill="url(#paint0_linear_2222_412)" fill-opacity="0.4" mask="url(#path-12-inside-1_2222_412)"/>
<mask id="path-14-inside-2_2222_412" fill="white">
<path d="M212 151H288V227H212V151Z"/>
</mask>
<path d="M212 151V150.5H211.5V151H212ZM288 151H288.5V150.5H288V151ZM212 151.5H288V150.5H212V151.5ZM287.5 151V227H288.5V151H287.5ZM212.5 227V151H211.5V227H212.5Z" fill="url(#paint1_linear_2222_412)" fill-opacity="0.4" mask="url(#path-14-inside-2_2222_412)"/>
<mask id="path-16-inside-3_2222_412" fill="white">
<path d="M288 151H364V227H288V151Z"/>
</mask>
<path d="M288 151V150.5H287.5V151H288ZM364 151H364.5V150.5H364V151ZM288 151.5H364V150.5H288V151.5ZM363.5 151V227H364.5V151H363.5ZM288.5 227V151H287.5V227H288.5Z" fill="url(#paint2_linear_2222_412)" fill-opacity="0.4" mask="url(#path-16-inside-3_2222_412)"/>
<mask id="path-18-inside-4_2222_412" fill="white">
<path d="M364 151H440V227H364V151Z"/>
</mask>
<path d="M364 151V150.5H363.5V151H364ZM440 151H440.5V150.5H440V151ZM364 151.5H440V150.5H364V151.5ZM439.5 151V227H440.5V151H439.5ZM364.5 227V151H363.5V227H364.5Z" fill="url(#paint3_linear_2222_412)" fill-opacity="0.4" mask="url(#path-18-inside-4_2222_412)"/>
<mask id="path-20-inside-5_2222_412" fill="white">
<path d="M440 151H517V227H440V151Z"/>
</mask>
<path d="M440 151V150.5H439.5V151H440ZM517 151H517.5V150.5H517V151ZM440 151.5H517V150.5H440V151.5ZM516.5 151V227H517.5V151H516.5ZM440.5 227V151H439.5V227H440.5Z" fill="url(#paint4_linear_2222_412)" fill-opacity="0.4" mask="url(#path-20-inside-5_2222_412)"/>
</g>
<defs>
<filter id="filter0_f_2222_412" x="-199" y="-403" width="1045" height="843" filterUnits="userSpaceOnUse" color-interpolation-filters="sRGB">
<feFlood flood-opacity="0" result="BackgroundImageFix"/>
<feBlend mode="normal" in="SourceGraphic" in2="BackgroundImageFix" result="shape"/>
<feGaussianBlur stdDeviation="150" result="effect1_foregroundBlur_2222_412"/>
</filter>
<linearGradient id="paint0_linear_2222_412" x1="173.5" y1="151" x2="173.5" y2="227" gradientUnits="userSpaceOnUse">
<stop stop-color="white"/>
<stop offset="1" stop-color="white" stop-opacity="0"/>
</linearGradient>
<linearGradient id="paint1_linear_2222_412" x1="250" y1="151" x2="250" y2="227" gradientUnits="userSpaceOnUse">
<stop stop-color="white"/>
<stop offset="1" stop-color="white" stop-opacity="0"/>
</linearGradient>
<linearGradient id="paint2_linear_2222_412" x1="326" y1="151" x2="326" y2="227" gradientUnits="userSpaceOnUse">
<stop stop-color="white"/>
<stop offset="1" stop-color="white" stop-opacity="0"/>
</linearGradient>
<linearGradient id="paint3_linear_2222_412" x1="402" y1="151" x2="402" y2="227" gradientUnits="userSpaceOnUse">
<stop stop-color="white"/>
<stop offset="1" stop-color="white" stop-opacity="0"/>
</linearGradient>
<linearGradient id="paint4_linear_2222_412" x1="478.5" y1="151" x2="478.5" y2="227" gradientUnits="userSpaceOnUse">
<stop stop-color="white"/>
<stop offset="1" stop-color="white" stop-opacity="0"/>
</linearGradient>
<clipPath id="clip0_2222_412">
<rect width="648" height="354" fill="white"/>
</clipPath>
</defs>
</svg>
