<svg width="106" height="106" viewBox="0 0 106 106" fill="none" xmlns="http://www.w3.org/2000/svg">
<path fill-rule="evenodd" clip-rule="evenodd" d="M72.3231 20.5353C70.7388 21.45 68.7129 20.9072 67.7981 19.3228C66.8834 17.7385 67.4263 15.7126 69.0106 14.7979L84.3104 5.96456C85.4707 5.29467 86.9202 5.38967 87.9832 6.20528C89.0461 7.02089 89.513 8.39647 89.1663 9.6906L84.7696 26.0991L93.1437 21.2643C94.7281 20.3496 96.754 20.8925 97.6687 22.4768C98.5834 24.0611 98.0406 26.087 96.4562 27.0018L81.1564 35.8351C79.9961 36.505 78.5466 36.41 77.4837 35.5944C76.4207 34.7788 75.9538 33.4032 76.3005 32.109L80.6972 15.7005L72.3231 20.5353Z" fill="url(#paint0_linear_86_1634)"/>
<path fill-rule="evenodd" clip-rule="evenodd" d="M55.9719 27.1604C54.3876 26.2457 53.8448 24.2198 54.7595 22.6354C55.6742 21.0511 57.7001 20.5083 59.2844 21.423L66.9343 25.8397C68.0946 26.5095 68.7371 27.8124 68.5622 29.1407C68.3874 30.469 67.4295 31.5612 66.1354 31.908L61.7934 33.0714L62.5177 33.4895C64.102 34.4043 64.6448 36.4302 63.7301 38.0145C62.8154 39.5988 60.7895 40.1417 59.2052 39.227L51.5553 34.8103C50.395 34.1404 49.7525 32.8375 49.9274 31.5092C50.1022 30.1809 51.0601 29.0887 52.3542 28.742L56.6962 27.5785L55.9719 27.1604Z" fill="url(#paint1_linear_86_1634)"/>
<path fill-rule="evenodd" clip-rule="evenodd" d="M58.674 14.4058C54.8892 14.009 51.0484 15.8162 49.0212 19.3228C48.2276 20.6987 47.8006 22.1825 47.7078 23.6662C47.5008 23.8042 47.2981 23.9508 47.1018 24.1018C45.0833 25.6761 43.7052 28.0052 43.3602 30.6449C43.0755 32.7971 43.5068 34.9235 44.5096 36.7393C45.3658 38.2921 46.6403 39.6205 48.2427 40.5479L55.892 44.9645C60.6451 47.7077 66.7245 46.0816 69.4677 41.3285C70.147 40.151 70.5589 38.8916 70.7207 37.6235C71.3763 38.8571 72.2971 39.9656 73.4509 40.8498C76.6405 43.2953 80.9881 43.5843 84.4688 41.5744L88.7777 39.0857C91.3289 44.6712 92.7501 50.8778 92.7501 57.4166C92.7501 81.8074 72.9764 101.583 48.5834 101.583C24.1904 101.583 4.41675 81.8074 4.41675 57.4166C4.41675 33.0257 24.1904 13.2499 48.5834 13.2499C52.0555 13.2499 55.4327 13.6467 58.674 14.4058ZM24.0545 49.696C25.0379 49.627 26.0429 49.9937 26.7546 50.783C28.8076 53.0689 31.0159 54.1041 33.1251 54.1041C34.4384 54.1041 35.7906 53.703 37.1191 52.849C37.9256 52.3314 38.7214 51.6456 39.4956 50.783C40.1943 50.0066 41.1799 49.6357 42.1503 49.6917C42.875 49.7349 43.5909 50.0152 44.1732 50.5371C45.534 51.762 45.644 53.8539 44.4212 55.2169C41.4667 58.4992 37.5849 60.7291 33.1251 60.7291C28.6653 60.7291 24.7834 58.4992 21.8289 55.2169C20.6062 53.8539 20.7161 51.762 22.0769 50.5371C22.6463 50.0238 23.345 49.7435 24.0545 49.696ZM57.6712 50.783C56.4484 49.4243 54.3544 49.3122 52.9936 50.5371C51.6328 51.762 51.5228 53.8539 52.7456 55.2169C55.7001 58.4992 59.5819 60.7291 64.0417 60.7291C68.5015 60.7291 72.3834 58.4992 75.3379 55.2169C76.5607 53.8539 76.4507 51.762 75.0899 50.5371C73.7291 49.3122 71.635 49.4243 70.4123 50.783C68.3592 53.0689 66.1509 54.1041 64.0417 54.1041C61.9326 54.1041 59.7243 53.0689 57.6712 50.783ZM53.0001 75.0833C53.0001 77.5245 51.0225 79.4999 48.5834 79.4999C46.1443 79.4999 44.1667 77.5245 44.1667 75.0833C44.1667 72.642 46.1443 70.6666 48.5834 70.6666C51.0225 70.6666 53.0001 72.642 53.0001 75.0833Z" fill="url(#paint2_linear_86_1634)"/>
<defs>
<linearGradient id="paint0_linear_86_1634" x1="51.2649" y1="5.52075" x2="51.2649" y2="101.583" gradientUnits="userSpaceOnUse">
<stop stop-color="#6F35FF" stop-opacity="0.2"/>
<stop offset="1" stop-color="#6F35FF" stop-opacity="0.05"/>
</linearGradient>
<linearGradient id="paint1_linear_86_1634" x1="51.2649" y1="5.52075" x2="51.2649" y2="101.583" gradientUnits="userSpaceOnUse">
<stop stop-color="#6F35FF" stop-opacity="0.2"/>
<stop offset="1" stop-color="#6F35FF" stop-opacity="0.05"/>
</linearGradient>
<linearGradient id="paint2_linear_86_1634" x1="51.2649" y1="5.52075" x2="51.2649" y2="101.583" gradientUnits="userSpaceOnUse">
<stop stop-color="#6F35FF" stop-opacity="0.2"/>
<stop offset="1" stop-color="#6F35FF" stop-opacity="0.05"/>
</linearGradient>
</defs>
</svg>
