<svg width="66" height="66" viewBox="0 0 66 66" fill="none" xmlns="http://www.w3.org/2000/svg">
<g filter="url(#filter0_di_21_225)">
<rect x="8" y="8" width="50" height="50" rx="25" fill="#2C1E4F"/>
<path fill-rule="evenodd" clip-rule="evenodd" d="M31.4279 43.3217L31.6988 42.864C32.1329 42.1305 32.35 41.7638 32.6958 41.5592C33.0416 41.3547 33.4926 41.3403 34.3947 41.3114C35.2406 41.2843 35.8091 41.2105 36.2952 41.0092C37.3186 40.5853 38.1317 39.7722 38.5556 38.7488C38.8736 37.9812 38.8736 37.0081 38.8736 35.062V34.2267C38.8736 31.4922 38.8736 30.125 38.2581 29.1207C37.9137 28.5587 37.4412 28.0861 36.8792 27.7417C35.8748 27.1263 34.5076 27.1263 31.7732 27.1263H29.2671C26.5327 27.1263 25.1655 27.1263 24.1611 27.7417C23.5991 28.0861 23.1266 28.5587 22.7822 29.1207C22.1667 30.125 22.1667 31.4922 22.1667 34.2267V35.062C22.1667 37.0081 22.1667 37.9812 22.4847 38.7488C22.9086 39.7722 23.7217 40.5853 24.7451 41.0092C25.2312 41.2105 25.7997 41.2843 26.6455 41.3114C27.5476 41.3403 27.9987 41.3547 28.3445 41.5592C28.6903 41.7638 28.9074 42.1305 29.3415 42.864L29.6124 43.3217C30.016 44.0036 31.0243 44.0036 31.4279 43.3217ZM34.1748 35.4797C34.7515 35.4797 35.219 35.0122 35.219 34.4355C35.219 33.8588 34.7515 33.3913 34.1748 33.3913C33.5981 33.3913 33.1306 33.8588 33.1306 34.4355C33.1306 35.0122 33.5981 35.4797 34.1748 35.4797ZM31.5643 34.4355C31.5643 35.0122 31.0968 35.4797 30.5202 35.4797C29.9435 35.4797 29.476 35.0122 29.476 34.4355C29.476 33.8588 29.9435 33.3913 30.5202 33.3913C31.0968 33.3913 31.5643 33.8588 31.5643 34.4355ZM26.8655 35.4797C27.4422 35.4797 27.9097 35.0122 27.9097 34.4355C27.9097 33.8588 27.4422 33.3913 26.8655 33.3913C26.2889 33.3913 25.8214 33.8588 25.8214 34.4355C25.8214 35.0122 26.2889 35.4797 26.8655 35.4797Z" fill="white"/>
<path d="M36.4339 22.1666C37.6815 22.1666 38.6737 22.1666 39.4695 22.2423C40.2854 22.3198 40.9752 22.4825 41.5897 22.859C42.222 23.2465 42.7536 23.7781 43.141 24.4103C43.5176 25.0248 43.6802 25.7147 43.7578 26.5306C43.8334 27.3263 43.8334 28.3186 43.8334 29.5662V30.4184C43.8334 31.3063 43.8334 32.0126 43.7943 32.5853C43.7544 33.1713 43.6709 33.6744 43.4757 34.1455C42.9988 35.2969 42.0841 36.2116 40.9328 36.6885C40.904 36.7005 40.875 36.712 40.846 36.7231C40.707 36.7762 40.5879 36.8217 40.4834 36.8557C40.4986 36.3478 40.4986 35.7693 40.4986 35.1164V34.1498C40.4986 32.8481 40.4986 31.7576 40.4143 30.8711C40.3261 29.943 40.1341 29.072 39.6436 28.2716C39.1653 27.4909 38.5089 26.8346 37.7283 26.3562C36.9278 25.8657 36.0569 25.6737 35.1288 25.5855C34.2422 25.5012 33.1518 25.5012 31.85 25.5013H29.1903C28.3062 25.5012 27.5196 25.5012 26.8281 25.5276C26.8603 25.416 26.9044 25.288 26.9562 25.1378C27.0443 24.8824 27.1557 24.6408 27.2969 24.4103C27.6844 23.7781 28.2159 23.2465 28.8482 22.859C29.4627 22.4825 30.1526 22.3198 30.9685 22.2423C31.7642 22.1666 32.7564 22.1666 34.0041 22.1666H36.4339Z" fill="white"/>
</g>
<defs>
<filter id="filter0_di_21_225" x="0" y="0" width="66" height="66" filterUnits="userSpaceOnUse" color-interpolation-filters="sRGB">
<feFlood flood-opacity="0" result="BackgroundImageFix"/>
<feColorMatrix in="SourceAlpha" type="matrix" values="0 0 0 0 0 0 0 0 0 0 0 0 0 0 0 0 0 0 127 0" result="hardAlpha"/>
<feMorphology radius="4" operator="dilate" in="SourceAlpha" result="effect1_dropShadow_21_225"/>
<feOffset/>
<feGaussianBlur stdDeviation="2"/>
<feComposite in2="hardAlpha" operator="out"/>
<feColorMatrix type="matrix" values="0 0 0 0 0.183356 0 0 0 0 0.114943 0 0 0 0 0.701346 0 0 0 0.25 0"/>
<feBlend mode="normal" in2="BackgroundImageFix" result="effect1_dropShadow_21_225"/>
<feBlend mode="normal" in="SourceGraphic" in2="effect1_dropShadow_21_225" result="shape"/>
<feColorMatrix in="SourceAlpha" type="matrix" values="0 0 0 0 0 0 0 0 0 0 0 0 0 0 0 0 0 0 127 0" result="hardAlpha"/>
<feMorphology radius="4" operator="erode" in="SourceAlpha" result="effect2_innerShadow_21_225"/>
<feOffset dy="4"/>
<feGaussianBlur stdDeviation="10"/>
<feComposite in2="hardAlpha" operator="arithmetic" k2="-1" k3="1"/>
<feColorMatrix type="matrix" values="0 0 0 0 1 0 0 0 0 1 0 0 0 0 1 0 0 0 0.2 0"/>
<feBlend mode="normal" in2="shape" result="effect2_innerShadow_21_225"/>
</filter>
</defs>
</svg>
