<svg width="375" height="227" viewBox="0 0 375 227" fill="none" xmlns="http://www.w3.org/2000/svg">
<rect x="-0.75" y="-0.75" width="76.5" height="75.5" stroke="white" stroke-opacity="0.2" stroke-width="0.5"/>
<rect x="76.25" y="-0.75" width="75.5" height="75.5" stroke="white" stroke-opacity="0.2" stroke-width="0.5"/>
<rect x="152.25" y="-0.75" width="75.5" height="75.5" stroke="white" stroke-opacity="0.2" stroke-width="0.5"/>
<rect x="228.25" y="-0.75" width="75.5" height="75.5" stroke="white" stroke-opacity="0.2" stroke-width="0.5"/>
<rect x="304.25" y="-0.75" width="76.5" height="75.5" stroke="white" stroke-opacity="0.2" stroke-width="0.5"/>
<rect x="-0.75" y="75.25" width="76.5" height="75.5" stroke="white" stroke-opacity="0.3" stroke-width="0.5"/>
<rect x="76.25" y="75.25" width="75.5" height="75.5" stroke="white" stroke-opacity="0.3" stroke-width="0.5"/>
<rect x="152.25" y="75.25" width="75.5" height="75.5" stroke="white" stroke-opacity="0.3" stroke-width="0.5"/>
<rect x="228.25" y="75.25" width="75.5" height="75.5" stroke="white" stroke-opacity="0.3" stroke-width="0.5"/>
<rect x="304.25" y="75.25" width="76.5" height="75.5" stroke="white" stroke-opacity="0.3" stroke-width="0.5"/>
<rect x="-0.75" y="151.25" width="76.5" height="75.5" stroke="white" stroke-opacity="0.4" stroke-width="0.5"/>
<rect x="76.25" y="151.25" width="75.5" height="75.5" stroke="white" stroke-opacity="0.4" stroke-width="0.5"/>
<rect x="152.25" y="151.25" width="75.5" height="75.5" stroke="white" stroke-opacity="0.4" stroke-width="0.5"/>
<rect x="228.25" y="151.25" width="75.5" height="75.5" stroke="white" stroke-opacity="0.4" stroke-width="0.5"/>
<rect x="304.25" y="151.25" width="76.5" height="75.5" stroke="white" stroke-opacity="0.4" stroke-width="0.5"/>
</svg>
